<svg xmlns="http://www.w3.org/2000/svg" width="50" height="29" viewBox="0 0 120.23 69.6"><path fill="#fff" d="M60.12 46.47L20.24 23.21l-.12 46.38-.01.01L0 57.98l.01-46.39L20.13 0l39.99 23.15h-.03L100.11 0l20.11 11.59.01 46.39-20.1 11.62-.02-.01-.11-46.38h-.01L60.12 46.47z"/><g opacity=".59" fill="#fff"><path d="M100.06 46.29L80.12 34.8l-20 11.67 40 23.12zm0 0L80.12 34.8l-20 11.67 40 23.12zm-79.88 0l-.06 23.26 40-23.12-20-11.65zm0 0l-.06 23.26 40-23.12-20-11.65z"/><path d="M100.06 46.29L80.12 34.8l-20 11.67 39.99 23.12-.05-23.3zM20.12 69.59l40-23.12L40.11 34.8 20.18 46.29l-.06 23.3z"/></g></svg>