<svg width="46" height="27" viewBox="0 0 898 588" fill="none" xmlns="http://www.w3.org/2000/svg">
  <g clip-path="url(#clip0)">
    <g opacity=".8">
      <mask id="a" fill="#fff">
        <path d="M449 411.703l298.211-171.432V588L898 493.301V151.935L750.578 63.973 449 236.902 147.422 63.972 0 151.936v341.366L150.789 588V240.271L449 411.703z"/>
        <path d="M187.457 374.646v178.918l222.255-126.141-154.905-90.956-67.35 38.179zM712.787 553.564V374.646l-67.35-38.179-154.905 90.956 222.255 126.141z"/>
      </mask>
      <path d="M449 411.703l298.211-171.432V588L898 493.301V151.935L750.578 63.973 449 236.902 147.422 63.972 0 151.936v341.366L150.789 588V240.271L449 411.703z" fill="url(#paint0_linear)"/>
      <path d="M187.457 374.646v178.918l222.255-126.141-154.905-90.956-67.35 38.179z" fill="url(#paint1_linear)"/>
      <path d="M712.787 553.564V374.646l-67.35-38.179-154.905 90.956 222.255 126.141z" fill="url(#paint2_linear)"/>
      <path d="M747.211 240.271h6v-10.37l-8.991 5.168 2.991 5.202zM449 411.703l-2.99 5.201 2.99 1.719 2.99-1.719-2.99-5.201zM747.211 588h-6v10.854l9.191-5.773-3.191-5.081zM898 493.301l3.191 5.081 2.809-1.764v-3.317h-6zm0-341.366h6v-3.407l-2.926-1.746-3.074 5.153zM750.578 63.973l3.075-5.153-3.015-1.798-3.044 1.746 2.984 5.205zM449 236.902l-2.985 5.205 2.985 1.711 2.985-1.711-2.985-5.205zM147.422 63.972l2.984-5.204-3.045-1.746-3.014 1.798 3.075 5.153zM0 151.936l-3.074-5.153L-6 148.528v3.407h6zm0 341.366h-6v3.317l2.809 1.764L0 493.301zM150.789 588l-3.191 5.081 9.191 5.773V588h-6zm0-347.729l2.99-5.202-8.99-5.168v10.37h6zm36.668 313.293h-6v10.305l8.962-5.086-2.962-5.219zm0-178.918l-2.958-5.219-3.042 1.724v3.495h6zm222.255 52.777l2.962 5.219 9.039-5.13-8.963-5.263-3.038 5.174zm-154.905-90.956l3.038-5.174-2.985-1.753-3.011 1.708 2.958 5.219zm457.98 38.179h6v-3.495l-3.041-1.724-2.959 5.219zm0 178.918l-2.961 5.219 8.961 5.086v-10.305h-6zm-67.35-217.097l2.959-5.219-3.011-1.708-2.986 1.753 3.038 5.174zm-154.905 90.956l-3.038-5.174-8.962 5.263 9.039 5.13 2.961-5.219zM744.22 235.069L446.01 406.501l5.98 10.403 298.211-171.432-5.981-10.403zM753.211 588V240.271h-12V588h12zm141.598-99.78L744.02 582.919l6.382 10.162 150.789-94.699-6.382-10.162zM892 151.935v341.366h12V151.935h-12zm-144.496-82.81l147.421 87.962 6.149-10.305L753.653 58.82l-6.149 10.305zM451.985 242.107l301.578-172.93-5.969-10.41-301.579 172.93 5.97 10.41zM144.437 69.177l301.578 172.93 5.97-10.41-301.579-172.93-5.969 10.41zM3.074 157.088l147.422-87.962-6.149-10.305-147.421 87.962 6.148 10.305zM6 493.301V151.935H-6v341.366H6zm147.98 89.618L3.191 488.22l-6.382 10.162 150.789 94.699 6.382-10.162zm-9.191-342.648V588h12V240.271h-12zm307.201 166.23L153.779 235.069l-5.98 10.403L446.01 416.904l5.98-10.403zM193.457 553.564V374.646h-12v178.918h12zm213.294-131.359L184.496 548.346l5.923 10.437 222.255-126.141-5.923-10.437zm-154.982-80.564l154.905 90.956 6.076-10.348-154.905-90.956-6.076 10.348zm-61.353 38.225l67.35-38.179-5.917-10.439-67.35 38.179 5.917 10.439zm516.371-5.22v178.918h12V374.646h-12zm-64.309-32.959l67.35 38.179 5.918-10.439-67.35-38.179-5.918 10.439zm-148.908 90.91l154.905-90.956-6.076-10.348-154.905 90.956 6.076 10.348zm222.179 115.749L493.494 422.205l-5.923 10.437 222.255 126.141 5.923-10.437z" fill="#C42C7E" mask="url(#a)"/>
      <mask id="b" fill="#fff">
        <path d="M449 176.298L150.789 347.73V0L0 94.7v341.366l147.422 87.962L449 351.099l301.578 172.929L898 436.066V94.7L747.211 0v347.73L449 176.298z"/>
        <path d="M710.542 213.354V34.436L488.288 160.577l154.904 90.957 67.35-38.18zM185.213 34.436v178.918l67.35 38.18 154.905-90.957-222.255-126.14z"/>
      </mask>
      <path d="M449 176.298L150.789 347.73V0L0 94.7v341.366l147.422 87.962L449 351.099l301.578 172.929L898 436.066V94.7L747.211 0v347.73L449 176.298z" fill="url(#paint3_linear)"/>
      <path d="M710.542 213.354V34.436L488.288 160.577l154.904 90.957 67.35-38.18z" fill="url(#paint4_linear)"/>
      <path d="M185.213 34.436v178.918l67.35 38.18 154.905-90.957-222.255-126.14z" fill="url(#paint5_linear)"/>
      <path d="M150.789 347.73h-6v10.37l8.991-5.168-2.991-5.202zM449 176.298l2.99-5.202-2.99-1.719-2.99 1.719 2.99 5.202zM150.789 0h6v-10.853l-9.191 5.772L150.789 0zM0 94.7l-3.19-5.082L-6 91.382V94.7h6zm0 341.366h-6v3.407l2.926 1.746L0 436.066zm147.422 87.962l-3.075 5.152 3.014 1.799 3.045-1.746-2.984-5.205zM449 351.099l2.985-5.205-2.985-1.712-2.985 1.712 2.985 5.205zm301.578 172.929l-2.984 5.205 3.044 1.746 3.015-1.799-3.075-5.152zM898 436.066l3.074 5.153 2.926-1.746v-3.407h-6zM898 94.7h6v-3.317l-2.809-1.764-3.191 5.08zM747.211 0l3.191-5.08-9.191-5.773V0h6zm0 347.73l-2.991 5.202 8.991 5.168v-10.37h-6zM710.542 34.437h6V24.132l-8.961 5.086 2.961 5.219zm0 178.917l2.959 5.22 3.041-1.724v-3.496h-6zm-222.254-52.777l-2.962-5.218-9.039 5.13 8.962 5.262 3.039-5.174zm154.904 90.957l-3.038 5.174 2.986 1.752 3.011-1.707-2.959-5.219zm-457.979-38.18h-6v3.496l3.041 1.724 2.959-5.22zm0-178.918l2.961-5.218-8.961-5.086v10.304h6zm67.35 217.098l-2.959 5.219 3.011 1.707 2.986-1.752-3.038-5.174zm154.905-90.957l3.038 5.174 8.962-5.262-9.039-5.13-2.961 5.218zM153.78 352.932L451.99 181.5l-5.98-10.404-298.211 171.432 5.981 10.404zM144.789 0v347.73h12V0h-12zM3.191 99.78L153.98 5.082 147.598-5.08-3.191 89.62 3.191 99.78zM6 436.067V94.7H-6v341.366H6zm144.496 82.809L3.074 430.914l-6.148 10.305 147.421 87.961 6.149-10.305zm295.519-172.981L144.437 518.823l5.969 10.41 301.579-172.929-5.97-10.41zm307.548 172.929L451.985 345.894l-5.97 10.41 301.579 172.929 5.969-10.41zm141.363-87.909l-147.422 87.961 6.149 10.305 147.421-87.961-6.148-10.305zM892 94.7v341.366h12V94.7h-12zM744.02 5.08l150.789 94.7 6.382-10.162-150.789-94.7-6.382 10.162zm9.191 342.649V0h-12v347.73h12zM446.01 181.5l298.21 171.432 5.981-10.404L451.99 171.096l-5.98 10.404zM704.542 34.436v178.918h12V34.436h-12zm-213.293 131.36L713.504 39.655l-5.923-10.437L485.326 155.36l5.923 10.437zm154.982 80.564l-154.905-90.957-6.077 10.348 154.905 90.957 6.077-10.348zm61.353-38.225l-67.35 38.179 5.917 10.439 67.35-38.179-5.917-10.439zm-516.371 5.219V34.436h-12v178.918h12zm64.308 32.96l-67.349-38.179-5.918 10.439 67.35 38.179 5.917-10.439zm148.909-90.911L249.525 246.36l6.076 10.348 154.905-90.957-6.076-10.348zM182.251 39.655l222.255 126.141 5.923-10.437-222.255-126.14-5.923 10.435z" fill="#794EF4" mask="url(#b)"/>
    </g>
    <path d="M448.143 369.252l261.806-150.504v305.28l132.381-83.139V141.196L712.905 63.973 448.143 215.79 183.382 63.973 53.957 141.196v299.693l132.381 83.139v-305.28l261.805 150.504z" fill="#FFB84B"/>
    <path d="M218.53 336.72v157.075l195.122-110.741-135.994-79.853-59.128 33.519zM679.728 493.795V336.72L620.6 303.201l-135.994 79.853 195.122 110.741z" fill="#FFB84B"/>
  </g>
  <defs>
    <linearGradient id="paint0_linear" x1="720.284" y1="859.385" x2="448.899" y2="588.101" gradientUnits="userSpaceOnUse">
      <stop offset=".214" stop-color="#E03390"/>
      <stop offset=".858" stop-color="#E03390" stop-opacity="0"/>
    </linearGradient>
    <linearGradient id="paint1_linear" x1="720.284" y1="859.385" x2="448.899" y2="588.101" gradientUnits="userSpaceOnUse">
      <stop offset=".214" stop-color="#E03390"/>
      <stop offset=".858" stop-color="#E03390" stop-opacity="0"/>
    </linearGradient>
    <linearGradient id="paint2_linear" x1="720.284" y1="859.385" x2="448.899" y2="588.101" gradientUnits="userSpaceOnUse">
      <stop offset=".214" stop-color="#E03390"/>
      <stop offset=".858" stop-color="#E03390" stop-opacity="0"/>
    </linearGradient>
    <linearGradient id="paint3_linear" x1="177.716" y1="-271.384" x2="449.101" y2="-.1" gradientUnits="userSpaceOnUse">
      <stop offset=".271" stop-color="#794EF4"/>
      <stop offset="1" stop-color="#794EF4" stop-opacity="0"/>
    </linearGradient>
    <linearGradient id="paint4_linear" x1="177.716" y1="-271.384" x2="449.101" y2="-.1" gradientUnits="userSpaceOnUse">
      <stop offset=".271" stop-color="#794EF4"/>
      <stop offset="1" stop-color="#794EF4" stop-opacity="0"/>
    </linearGradient>
    <linearGradient id="paint5_linear" x1="177.716" y1="-271.384" x2="449.101" y2="-.1" gradientUnits="userSpaceOnUse">
      <stop offset=".271" stop-color="#794EF4"/>
      <stop offset="1" stop-color="#794EF4" stop-opacity="0"/>
    </linearGradient>
    <clipPath id="clip0">
      <path fill="#fff" d="M0 0h898v588H0z"/>
    </clipPath>
  </defs>
</svg>
