<svg xmlns="http://www.w3.org/2000/svg" width="20" height="13.2" viewBox="0 0 23.97 16.8">
  <defs>
    <clipPath id="a" transform="translate(-.06 -3)">
      <path fill="none" d="M0 3h24v16.8H0z"/>
    </clipPath>
  </defs>
  <g fill="#B3B1B6" clip-path="url(#a)">
    <path d="M23.7 7.44A12.26 12.26 0 0011.94 0 12.26 12.26 0 00.18 7.44a2.65 2.65 0 000 1.92 12.26 12.26 0 0011.76 7.44A12.26 12.26 0 0023.7 9.36a1.84 1.84 0 000-1.92zM11.94 14.4a10.17 10.17 0 01-9.6-6 10.17 10.17 0 019.6-6 10.17 10.17 0 019.6 6 10.17 10.17 0 01-9.6 6z" style="transition:fill 150ms ease 0s"/>
    <path d="M11.94 3.6a7 7 0 00-2.16.48A2.51 2.51 0 0110.74 6a2.41 2.41 0 01-2.4 2.4 2 2 0 01-1.2-.4v.36a4.8 4.8 0 104.8-4.76z" style="transition:fill 150ms ease 0s"/>
  </g>
</svg>
